# xmcd CD database file
#
# Track frame offsets:
#	150
#	17783
#	30058
#	42629
#	59083
#	67584
#	75840
#	90109
#	101152
#	112651
#	125808
#	140471
#
# Disc length: 2042 seconds
#
# Revision: 0
# Processed by: cddbd v1.5.2PL0 Copyright (c) Steve Scherf et al.
# Submitted via: ACXtractor (MTCDDB.DLL V2003.07.15)
#
DISCID=8b07f80c
DTITLE=Charley Boyter - Play Charley
DYEAR=2007
DGENRE=Country
TTITLE0=Home in Dirranbandi
TTITLE1=Walk a Country Mile
TTITLE2=Twilight Zone
TTITLE3=Camooweal
TTITLE4=A Letter from Arrabury
TTITLE5=Butterfly Memories
TTITLE6=Sharon's Waltz
TTITLE7=Streets of Tamworth
TTITLE8=On the Nullabor
TTITLE9=I'll Just be a Drifter til' I Die
TTITLE10=Winter Winds
TTITLE11=Freight Train Yodel
EXTD=ID3G:   2 YEAR: 2007
EXTT0=
EXTT1=
EXTT2=
EXTT3=
EXTT4=
EXTT5=
EXTT6=
EXTT7=
EXTT8=
EXTT9=
EXTT10=
EXTT11=
PLAYORDER=
